<svg width="24" height="24" viewBox="0 0 24 24" fill="none" xmlns="http://www.w3.org/2000/svg">
  <path d="M21.35 11.1H12V13.9H17.91C17.44 16.02 15.71 17.64 13.56 18.23V20.8C17.06 20.2 20 17.1 20 12.99C20 12.63 20 12.36 21.35 11.1ZM12 22C6.48 22 2 17.52 2 12C2 6.48 6.48 2 12 2C16.07 2 19.53 4.21 21.35 7.3L18.08 9.63C17.18 7.3 14.77 6 12 6C8.69 6 6 8.69 6 12C6 15.31 8.69 18 12 18C13.66 18 15.14 17.32 16.09 16.23L13.12 13.66H12V11.1H21.35V11.1C21.53 11.44 21.65 11.77 21.71 12.11C21.73 12.21 21.74 12.31 21.74 12.41C21.74 17.02 17.52 21.24 12 22Z" fill="#E0E2DB"/>
</svg>